<?xml version="1.0" encoding="utf-8"?>
<svg xmlns="http://www.w3.org/2000/svg" xmlns:svg="http://www.w3.org/2000/svg" version="1.1" 
 width="180" height="180" viewBox="0 0 5906.000000 5906.000000"
 preserveAspectRatio="xMidYMid meet">
	<title>The Chapisha and Qwyre Publishing logo</title>
	<desc>The logo portrays a samara - a winged achene, a type of fruit in which a flattened wing of fibrous, papery tissue develops from the ovary wall - silhouetted against a solid black sun.</desc>
	<g transform="translate(0.000000,5906.000000) scale(0.100000,-0.100000)"
	fill="#000000" stroke="none">
		<path d="M28450 52049 c-343 -12 -646 -35 -775 -57 -33 -6 -167 -16 -298 -22
		-130 -6 -252 -16 -270 -21 -17 -5 -50 -9 -73 -9 -23 0 -57 -6 -75 -14 -20 -8
		-116 -19 -229 -26 -107 -7 -206 -17 -220 -22 -14 -6 -50 -14 -80 -18 -30 -4
		-82 -13 -115 -18 -33 -6 -116 -16 -185 -23 -69 -6 -143 -17 -165 -25 -47 -15
		-198 -39 -309 -49 -44 -4 -112 -18 -152 -31 -39 -12 -117 -28 -173 -33 -112
		-12 -126 -15 -221 -42 -36 -10 -112 -25 -170 -33 -58 -8 -132 -24 -165 -36
		-33 -11 -105 -27 -160 -35 -55 -9 -145 -28 -200 -45 -55 -16 -132 -34 -172
		-39 -39 -6 -92 -20 -118 -31 -26 -11 -89 -27 -139 -36 -50 -8 -129 -28 -176
		-44 -47 -16 -107 -32 -135 -36 -27 -4 -85 -19 -127 -35 -43 -15 -101 -31 -130
		-35 -29 -3 -82 -19 -119 -35 -36 -15 -96 -33 -135 -39 -38 -6 -91 -22 -119
		-35 -27 -13 -68 -26 -90 -30 -53 -9 -135 -35 -160 -51 -11 -7 -56 -19 -100
		-28 -45 -8 -103 -26 -130 -40 -28 -14 -77 -31 -110 -37 -32 -6 -81 -22 -107
		-35 -26 -13 -80 -31 -120 -39 -39 -9 -85 -24 -102 -34 -17 -11 -53 -25 -81
		-32 -27 -6 -79 -25 -114 -41 -36 -15 -92 -35 -125 -44 -33 -9 -76 -24 -96 -34
		-19 -10 -62 -26 -95 -35 -33 -10 -78 -28 -100 -41 -22 -12 -62 -28 -90 -34
		-27 -6 -75 -24 -105 -39 -30 -16 -71 -32 -90 -36 -19 -4 -63 -23 -98 -41 -35
		-19 -74 -34 -86 -34 -12 0 -53 -16 -92 -35 -38 -19 -76 -35 -85 -35 -9 0 -46
		-16 -82 -35 -36 -19 -73 -35 -81 -35 -8 0 -43 -15 -78 -34 -35 -18 -74 -36
		-88 -41 -29 -8 -179 -73 -265 -115 -192 -92 -231 -110 -246 -110 -8 0 -37 -14
		-64 -31 -28 -17 -66 -37 -85 -44 -19 -7 -61 -27 -94 -44 -32 -17 -66 -31 -76
		-31 -9 0 -35 -12 -56 -27 -21 -14 -66 -37 -98 -49 -33 -13 -66 -30 -75 -38 -9
		-8 -41 -24 -73 -36 -31 -11 -61 -27 -68 -35 -6 -8 -34 -21 -62 -31 -27 -9 -64
		-29 -81 -44 -18 -15 -49 -33 -69 -39 -20 -7 -48 -21 -61 -31 -13 -11 -49 -29
		-80 -40 -31 -12 -59 -26 -63 -31 -3 -6 -33 -23 -67 -39 -33 -17 -67 -36 -76
		-44 -9 -8 -29 -18 -44 -21 -16 -4 -49 -22 -75 -39 -26 -18 -63 -38 -82 -46
		-19 -7 -46 -23 -60 -35 -14 -12 -45 -30 -70 -39 -25 -10 -54 -26 -65 -36 -11
		-10 -42 -28 -70 -40 -27 -12 -59 -30 -70 -40 -11 -10 -36 -26 -56 -37 -47 -23
		-123 -68 -174 -103 -22 -14 -56 -32 -75 -40 -19 -7 -46 -23 -60 -35 -14 -13
		-40 -30 -59 -40 -19 -9 -52 -30 -74 -46 -22 -16 -46 -29 -53 -29 -6 0 -31 -16
		-54 -35 -23 -19 -48 -35 -55 -35 -6 0 -32 -16 -56 -35 -24 -19 -49 -35 -55
		-35 -6 0 -29 -14 -50 -31 -22 -17 -55 -37 -74 -45 -19 -8 -46 -26 -60 -38 -14
		-13 -39 -31 -56 -39 -17 -9 -37 -23 -44 -32 -8 -9 -36 -28 -62 -41 -27 -14
		-57 -33 -67 -43 -11 -11 -35 -27 -55 -36 -20 -10 -36 -21 -36 -26 0 -5 -24
		-21 -52 -35 -29 -15 -67 -38 -84 -53 -17 -14 -44 -34 -60 -43 -16 -10 -56 -38
		-89 -62 -33 -25 -76 -54 -95 -64 -19 -11 -44 -30 -55 -42 -11 -12 -36 -31 -55
		-41 -19 -10 -62 -39 -95 -64 -33 -25 -81 -59 -107 -76 -27 -17 -48 -34 -48
		-38 0 -4 -15 -15 -32 -25 -39 -23 -165 -117 -256 -191 -20 -17 -55 -43 -77
		-58 -39 -26 -60 -43 -181 -137 -31 -25 -69 -54 -83 -64 -14 -11 -42 -34 -62
		-50 -20 -17 -60 -49 -89 -71 -46 -35 -177 -144 -250 -208 -14 -12 -38 -30 -54
		-40 -15 -10 -67 -52 -115 -94 -86 -75 -131 -114 -206 -178 -22 -19 -77 -68
		-123 -110 -46 -41 -87 -75 -92 -75 -5 0 -39 -29 -75 -64 -35 -36 -75 -72 -87
		-80 -32 -23 -203 -184 -372 -351 -78 -77 -160 -153 -182 -170 -50 -38 -560
		-547 -599 -599 -16 -21 -92 -103 -170 -181 -164 -167 -310 -323 -391 -417 -32
		-38 -61 -68 -66 -68 -4 0 -20 -19 -34 -42 -15 -24 -54 -73 -88 -110 -33 -36
		-78 -86 -98 -110 -41 -47 -68 -79 -187 -216 -44 -50 -86 -102 -92 -114 -7 -12
		-23 -34 -35 -48 -43 -46 -168 -196 -209 -250 -22 -29 -56 -72 -75 -95 -19 -24
		-53 -66 -75 -95 -22 -28 -53 -66 -68 -85 -34 -41 -66 -85 -105 -141 -26 -39
		-42 -59 -117 -152 -17 -20 -39 -48 -48 -62 -9 -14 -37 -52 -62 -85 -25 -33
		-61 -82 -80 -110 -20 -27 -55 -77 -80 -110 -24 -33 -53 -76 -63 -95 -11 -19
		-30 -44 -42 -55 -12 -11 -31 -36 -42 -55 -10 -19 -39 -62 -64 -95 -24 -33 -52
		-73 -62 -89 -9 -16 -29 -43 -43 -60 -15 -17 -38 -55 -53 -83 -14 -29 -30 -53
		-35 -53 -5 0 -16 -16 -26 -36 -9 -20 -25 -44 -36 -55 -10 -10 -29 -40 -43 -67
		-13 -26 -32 -54 -41 -62 -9 -7 -25 -30 -35 -50 -10 -20 -26 -43 -35 -50 -9 -8
		-28 -37 -42 -64 -14 -28 -36 -64 -49 -79 -13 -16 -24 -34 -24 -40 0 -7 -16
		-32 -35 -56 -19 -24 -35 -50 -35 -56 0 -7 -16 -32 -35 -55 -19 -23 -35 -48
		-35 -54 0 -7 -13 -31 -29 -53 -16 -23 -41 -64 -55 -91 -14 -28 -31 -54 -37
		-58 -6 -3 -18 -23 -28 -43 -16 -36 -40 -76 -113 -190 -21 -32 -38 -63 -38 -69
		0 -6 -11 -24 -25 -40 -14 -17 -36 -55 -50 -85 -13 -30 -29 -58 -35 -62 -6 -3
		-23 -34 -39 -68 -15 -34 -35 -68 -44 -75 -9 -8 -21 -30 -28 -50 -6 -20 -21
		-50 -33 -67 -20 -28 -44 -74 -117 -217 -15 -31 -33 -59 -38 -62 -5 -4 -19 -32
		-31 -64 -12 -31 -29 -66 -39 -77 -10 -11 -26 -40 -35 -64 -10 -25 -28 -57 -41
		-73 -13 -15 -31 -50 -40 -77 -9 -27 -22 -55 -30 -61 -8 -7 -23 -36 -34 -64
		-11 -29 -31 -70 -45 -91 -14 -21 -30 -55 -36 -75 -6 -21 -20 -49 -31 -64 -12
		-15 -29 -52 -38 -84 -10 -31 -30 -74 -44 -96 -15 -21 -31 -52 -35 -70 -5 -17
		-21 -49 -36 -70 -14 -22 -33 -63 -42 -92 -8 -29 -23 -63 -33 -76 -10 -13 -24
		-41 -31 -63 -7 -22 -25 -65 -41 -95 -34 -66 -104 -225 -114 -260 -5 -14 -23
		-53 -41 -88 -19 -35 -34 -70 -34 -78 0 -8 -16 -45 -35 -81 -19 -36 -35 -74
		-35 -83 0 -9 -13 -42 -30 -73 -16 -30 -35 -77 -41 -104 -6 -26 -24 -70 -39
		-98 -15 -27 -31 -66 -35 -85 -4 -19 -19 -57 -34 -85 -16 -27 -34 -75 -41 -105
		-7 -30 -21 -71 -32 -90 -19 -34 -46 -104 -103 -275 -15 -44 -38 -105 -51 -135
		-13 -30 -29 -77 -35 -105 -6 -27 -22 -69 -35 -92 -13 -23 -31 -73 -39 -112 -8
		-39 -26 -93 -39 -119 -13 -26 -29 -74 -36 -107 -6 -33 -23 -82 -37 -109 -13
		-27 -31 -84 -40 -128 -8 -44 -25 -100 -38 -126 -13 -26 -29 -76 -35 -111 -6
		-36 -21 -83 -32 -105 -11 -21 -28 -81 -39 -131 -10 -51 -27 -111 -39 -132 -11
		-22 -27 -76 -35 -121 -7 -44 -23 -102 -34 -129 -12 -26 -30 -91 -40 -144 -11
		-52 -28 -117 -39 -145 -11 -27 -27 -93 -36 -146 -9 -53 -25 -118 -36 -144 -11
		-25 -27 -86 -35 -135 -7 -49 -25 -124 -39 -168 -14 -44 -30 -118 -36 -165 -6
		-47 -23 -127 -39 -178 -16 -51 -32 -122 -36 -158 -7 -65 -22 -138 -50 -240 -9
		-30 -20 -100 -25 -156 -6 -55 -21 -136 -34 -180 -13 -43 -27 -108 -30 -144
		-15 -142 -39 -284 -52 -315 -7 -18 -20 -109 -28 -202 -8 -93 -20 -181 -25
		-197 -6 -15 -11 -42 -11 -60 0 -19 -6 -51 -14 -72 -7 -22 -19 -122 -25 -224
		-7 -102 -17 -201 -23 -220 -16 -56 -26 -140 -43 -365 -14 -200 -24 -317 -46
		-520 -36 -345 -48 -794 -48 -1735 0 -909 12 -1321 49 -1705 23 -238 28 -307
		39 -480 6 -99 15 -205 21 -235 25 -141 40 -256 50 -385 11 -154 26 -264 41
		-310 10 -31 22 -119 39 -285 5 -52 20 -142 34 -200 14 -58 30 -153 35 -212 6
		-59 22 -151 35 -205 14 -54 32 -151 41 -216 9 -64 24 -145 34 -180 19 -61 34
		-143 46 -242 4 -27 17 -81 30 -120 13 -38 29 -113 35 -165 7 -52 23 -124 37
		-160 13 -36 30 -108 38 -160 7 -52 22 -119 34 -147 11 -29 30 -103 40 -164 11
		-61 27 -122 36 -136 9 -14 25 -73 36 -131 10 -58 26 -116 35 -130 9 -13 26
		-75 39 -137 13 -63 31 -124 39 -137 9 -13 24 -67 35 -119 10 -53 28 -114 40
		-137 12 -23 28 -75 36 -116 7 -41 25 -99 39 -128 13 -29 30 -80 36 -113 7 -33
		23 -81 36 -106 13 -26 30 -79 38 -119 8 -39 24 -86 35 -104 11 -18 28 -66 36
		-107 9 -40 25 -89 36 -108 11 -18 27 -63 35 -99 8 -36 26 -87 40 -113 13 -27
		29 -72 35 -101 6 -29 22 -71 34 -94 13 -22 29 -63 36 -90 6 -27 22 -71 35 -97
		13 -27 31 -74 40 -105 9 -31 26 -75 39 -97 12 -22 30 -67 40 -100 9 -33 25
		-73 35 -90 10 -16 27 -59 38 -95 12 -36 32 -87 46 -114 15 -27 26 -56 26 -64
		0 -9 13 -39 29 -67 16 -28 36 -74 44 -101 8 -27 29 -75 46 -108 17 -32 31 -65
		31 -74 0 -8 14 -40 31 -70 17 -31 38 -78 46 -106 8 -28 26 -63 38 -78 13 -15
		26 -45 30 -68 4 -22 18 -57 32 -77 14 -21 34 -62 44 -92 11 -30 26 -62 34 -71
		8 -9 24 -43 35 -76 11 -32 31 -75 44 -94 13 -19 29 -51 35 -71 6 -20 23 -51
		36 -70 14 -18 30 -50 35 -70 6 -20 21 -53 35 -74 14 -20 34 -60 45 -87 10 -28
		26 -58 34 -67 8 -9 24 -41 36 -73 11 -31 27 -61 35 -68 7 -6 26 -43 40 -81 15
		-38 31 -71 36 -75 5 -3 21 -29 35 -57 15 -29 32 -59 39 -67 8 -8 23 -40 34
		-71 12 -31 30 -64 41 -74 10 -9 26 -39 35 -65 9 -27 23 -54 31 -61 9 -7 28
		-38 44 -68 72 -143 87 -171 103 -188 9 -10 27 -44 41 -75 14 -31 30 -59 36
		-63 6 -3 24 -32 41 -63 17 -31 50 -91 74 -132 24 -41 53 -93 65 -115 12 -22
		32 -51 45 -65 12 -14 28 -41 35 -60 7 -19 23 -46 36 -60 12 -14 34 -47 49 -75
		49 -92 81 -144 102 -167 11 -13 30 -42 42 -65 11 -23 26 -45 32 -49 6 -3 19
		-24 29 -46 10 -22 27 -52 39 -67 12 -14 46 -64 76 -111 30 -47 66 -101 80
		-120 14 -19 46 -66 70 -105 24 -38 56 -86 70 -105 14 -19 38 -54 53 -76 37
		-56 93 -138 142 -204 22 -30 48 -68 57 -84 10 -16 33 -46 50 -66 18 -21 33
		-42 33 -47 0 -5 15 -27 33 -49 18 -21 45 -57 60 -79 15 -22 38 -56 52 -75 13
		-19 32 -44 42 -55 10 -11 30 -38 45 -60 16 -22 48 -67 73 -100 24 -33 56 -77
		70 -98 14 -20 29 -37 34 -37 5 0 19 -17 31 -37 12 -21 31 -47 42 -58 10 -11
		41 -49 68 -85 91 -121 115 -152 150 -190 19 -21 51 -60 70 -86 19 -26 53 -68
		75 -94 22 -26 60 -73 85 -104 25 -31 60 -74 78 -94 73 -83 97 -111 175 -206
		86 -103 222 -261 270 -311 15 -17 61 -65 102 -108 41 -43 75 -81 75 -85 0 -4
		57 -66 126 -137 69 -72 143 -152 164 -180 45 -60 911 -921 958 -955 19 -12 81
		-69 139 -126 58 -57 109 -104 112 -104 4 0 42 -33 83 -73 143 -137 332 -306
		407 -362 35 -26 310 -262 378 -324 14 -13 39 -31 56 -41 16 -10 46 -32 66 -49
		20 -17 59 -49 86 -71 28 -22 66 -54 85 -71 81 -69 132 -109 138 -109 4 0 30
		-18 57 -39 125 -100 147 -117 169 -136 12 -11 47 -37 77 -58 77 -53 114 -81
		154 -114 40 -33 85 -66 180 -133 39 -27 86 -61 105 -75 19 -14 67 -48 105 -75
		39 -27 86 -61 105 -75 53 -39 102 -73 134 -92 15 -10 42 -28 60 -40 17 -12 48
		-34 69 -48 21 -14 45 -33 55 -41 25 -22 111 -79 157 -105 22 -12 55 -35 73
		-50 18 -16 39 -29 46 -29 7 0 33 -16 57 -35 24 -19 49 -35 56 -35 7 0 27 -13
		45 -29 18 -15 51 -38 73 -50 22 -12 74 -44 115 -71 41 -27 96 -61 122 -74 26
		-14 49 -30 53 -36 4 -6 33 -24 65 -40 32 -16 62 -34 65 -40 4 -6 31 -22 60
		-34 29 -13 56 -29 59 -35 4 -6 34 -25 66 -41 32 -16 62 -34 65 -40 4 -6 31
		-22 60 -34 29 -13 56 -29 59 -35 4 -6 35 -25 69 -42 103 -50 170 -88 191 -108
		12 -10 41 -26 66 -35 25 -10 52 -24 60 -31 16 -15 89 -55 195 -108 33 -16 69
		-37 80 -47 11 -9 40 -25 64 -34 25 -10 57 -26 71 -36 14 -10 48 -27 76 -38 27
		-10 67 -31 88 -45 21 -15 44 -27 50 -27 7 0 30 -13 52 -29 22 -16 63 -38 93
		-50 29 -11 61 -27 70 -35 9 -8 39 -23 66 -33 28 -11 68 -32 89 -46 21 -15 47
		-27 56 -27 9 0 53 -18 96 -40 43 -22 84 -40 90 -40 6 0 31 -13 55 -30 24 -16
		67 -36 95 -45 28 -8 57 -21 63 -29 7 -8 36 -22 64 -32 29 -9 68 -27 88 -41 20
		-13 65 -33 99 -43 35 -10 72 -28 84 -38 11 -11 44 -25 71 -31 28 -7 70 -26 94
		-42 25 -16 55 -29 67 -29 12 0 51 -15 86 -33 35 -19 87 -42 117 -52 30 -10 68
		-26 85 -35 17 -10 56 -26 86 -35 30 -10 66 -26 80 -36 14 -10 52 -25 85 -35
		33 -9 80 -27 105 -39 25 -12 71 -30 102 -39 32 -9 72 -25 90 -35 18 -11 61
		-27 95 -35 35 -9 78 -25 97 -37 18 -11 67 -29 107 -40 41 -11 83 -26 95 -34
		12 -7 54 -24 95 -36 41 -12 94 -32 119 -44 25 -12 74 -28 110 -34 36 -7 83
		-23 105 -36 22 -13 69 -29 104 -35 36 -6 87 -23 115 -37 28 -14 80 -32 115
		-39 35 -8 85 -24 110 -37 25 -13 78 -30 116 -37 39 -7 93 -23 120 -35 28 -13
		77 -28 110 -35 33 -6 85 -22 115 -35 30 -13 93 -31 140 -40 47 -9 110 -27 140
		-40 30 -13 88 -28 128 -34 41 -6 99 -22 130 -35 31 -13 100 -31 153 -40 53 -9
		116 -25 141 -36 25 -11 88 -26 142 -35 53 -9 118 -24 144 -34 26 -10 92 -26
		147 -35 55 -10 135 -28 179 -42 43 -13 128 -31 190 -40 61 -8 145 -26 186 -39
		41 -13 122 -29 180 -35 57 -7 136 -22 175 -35 39 -12 120 -28 180 -34 61 -7
		157 -23 215 -37 58 -14 148 -29 200 -34 131 -13 234 -28 300 -44 59 -15 182
		-31 320 -41 47 -4 108 -11 135 -17 73 -16 156 -27 285 -39 218 -20 415 -40
		495 -49 184 -22 650 -50 1180 -70 127 -4 248 -13 270 -19 55 -15 1173 -14
		1235 1 25 6 142 14 260 19 118 5 260 11 315 14 55 3 201 10 325 15 232 11 389
		23 520 40 41 6 122 14 180 19 58 5 188 16 290 25 102 8 201 20 220 26 44 13
		235 37 360 45 52 4 115 12 140 19 59 17 150 34 225 41 136 13 293 38 350 55
		33 10 101 22 150 25 50 4 132 18 184 31 51 14 154 33 230 44 75 11 174 31 221
		44 47 14 123 30 170 36 47 7 117 22 155 35 39 13 108 29 155 35 46 6 107 21
		135 31 27 11 102 29 166 39 64 11 137 28 161 39 25 10 83 27 129 36 46 9 116
		27 154 40 39 13 108 32 155 41 47 9 98 23 113 31 16 8 69 23 119 34 49 11 106
		28 126 38 21 10 84 28 141 40 57 11 118 30 135 40 17 10 56 24 88 31 31 6 100
		27 155 45 54 19 106 35 116 35 10 0 49 13 85 29 37 16 98 37 137 46 38 9 80
		22 92 30 12 8 57 24 100 36 43 12 93 30 111 41 19 12 64 27 100 35 36 7 85 25
		109 39 23 13 69 29 100 35 32 6 74 21 93 34 19 13 63 30 98 39 35 9 82 27 105
		40 23 13 67 29 97 36 30 7 73 23 95 36 22 12 60 28 85 34 25 7 68 24 95 40 28
		15 66 31 85 35 19 4 58 19 85 35 28 15 77 35 110 44 32 10 70 26 83 36 13 11
		48 26 79 35 30 9 72 27 92 40 20 13 61 30 92 39 31 9 62 22 68 30 7 8 36 23
		64 32 29 9 70 27 93 40 23 14 64 31 91 39 28 8 62 24 77 36 14 11 54 31 87 44
		34 14 67 29 74 35 7 5 38 19 69 30 31 10 68 28 82 39 14 11 51 30 82 41 31 12
		66 30 77 39 11 10 43 26 72 35 28 10 57 23 63 31 7 8 37 24 67 35 30 11 69 31
		86 44 18 13 55 31 83 40 29 9 59 25 68 35 9 10 37 24 61 31 25 7 55 23 68 36
		12 12 46 31 74 42 29 11 64 29 79 41 34 27 51 26 94 -2 19 -13 58 -32 87 -41
		28 -9 57 -24 65 -33 7 -9 33 -25 58 -36 25 -11 59 -29 75 -42 17 -12 52 -29
		79 -38 28 -10 59 -25 70 -36 12 -10 44 -26 73 -35 28 -10 57 -24 65 -33 7 -9
		37 -27 67 -40 30 -13 65 -33 78 -43 13 -10 46 -26 73 -35 27 -9 54 -22 60 -30
		6 -8 42 -26 80 -40 38 -14 74 -33 80 -40 7 -8 37 -24 68 -35 32 -12 64 -28 73
		-36 9 -8 44 -25 79 -39 35 -14 70 -31 79 -39 9 -9 45 -24 80 -35 35 -11 73
		-28 85 -39 11 -11 42 -26 69 -35 26 -9 59 -25 74 -37 14 -11 50 -27 79 -36 29
		-8 63 -23 76 -33 13 -10 46 -26 73 -36 28 -11 66 -29 85 -41 19 -12 54 -27 76
		-33 23 -6 58 -22 78 -36 20 -13 60 -31 89 -40 28 -8 72 -29 96 -45 24 -17 54
		-30 66 -30 13 0 49 -14 81 -31 33 -17 81 -38 109 -46 27 -8 60 -24 74 -34 13
		-10 54 -28 91 -39 37 -11 78 -29 92 -39 14 -11 47 -25 74 -32 27 -6 67 -22 89
		-34 22 -13 67 -31 100 -40 33 -9 76 -28 95 -40 19 -13 58 -29 85 -35 28 -6 75
		-24 105 -39 30 -15 77 -33 104 -40 27 -7 68 -23 90 -35 23 -13 64 -29 91 -35
		28 -7 65 -21 83 -31 18 -11 60 -27 94 -36 34 -8 82 -26 108 -39 26 -13 75 -31
		110 -40 35 -9 81 -25 102 -36 22 -11 76 -29 121 -40 45 -11 92 -27 105 -35 12
		-8 59 -24 104 -35 45 -11 99 -29 121 -40 22 -12 71 -27 111 -35 39 -8 97 -26
		128 -40 32 -14 86 -30 120 -35 34 -5 84 -21 112 -34 28 -13 89 -31 136 -40 47
		-8 102 -24 123 -35 21 -11 79 -27 130 -36 51 -8 130 -28 177 -44 47 -15 112
		-31 145 -35 33 -4 89 -18 124 -31 36 -14 110 -31 165 -39 56 -9 128 -24 161
		-34 82 -26 99 -30 234 -46 64 -8 143 -24 175 -35 33 -11 104 -25 160 -30 150
		-16 223 -26 301 -43 104 -23 442 -52 780 -66 94 -4 183 -12 198 -19 41 -18
		316 -16 414 3 43 8 124 15 180 15 57 0 122 4 145 10 24 5 129 16 233 24 133
		11 205 21 240 34 28 11 102 27 165 36 63 10 135 26 159 37 24 10 80 26 125 35
		44 9 95 24 113 34 18 11 65 29 105 40 40 12 87 30 103 40 17 10 55 25 85 35
		30 10 69 28 85 40 17 12 53 30 82 39 28 9 57 24 65 33 7 9 36 27 63 40 28 13
		64 34 81 46 18 12 45 30 60 40 33 19 113 77 170 122 38 30 330 322 379 380 28
		32 58 74 104 145 16 25 39 57 51 72 11 15 28 44 36 65 9 21 27 50 39 65 13 15
		29 44 36 65 7 21 22 54 35 73 13 19 26 49 30 65 4 17 20 58 36 93 15 34 35 90
		44 125 8 34 26 87 39 117 13 30 27 80 30 110 9 76 34 197 51 245 8 23 19 121
		25 225 23 383 44 636 57 685 6 22 15 243 22 490 6 248 13 470 16 495 3 25 9
		218 13 430 5 241 12 398 20 420 15 47 15 619 -1 675 -6 22 -14 193 -19 385 -5
		190 -11 381 -14 425 -2 44 -9 231 -15 415 -6 184 -16 362 -21 395 -19 117 -39
		317 -59 605 -6 85 -17 182 -25 215 -21 94 -34 189 -45 325 -11 139 -24 219
		-51 329 -11 41 -19 94 -19 118 0 61 -26 225 -50 308 -10 39 -24 115 -30 170
		-7 55 -23 135 -36 178 -14 42 -29 115 -34 161 -6 46 -22 123 -36 172 -14 49
		-32 126 -40 171 -8 45 -25 111 -38 146 -14 35 -29 98 -35 140 -6 43 -22 103
		-35 135 -13 32 -31 95 -40 141 -9 46 -25 104 -37 130 -11 25 -27 77 -35 115
		-8 38 -25 95 -39 125 -13 31 -32 85 -40 120 -9 36 -25 81 -35 101 -10 21 -26
		68 -35 106 -9 38 -25 84 -35 102 -11 18 -27 63 -36 100 -9 37 -27 85 -40 108
		-12 22 -28 63 -35 90 -7 27 -25 74 -40 104 -15 30 -31 69 -35 85 -4 17 -22 58
		-41 93 -18 35 -33 71 -33 80 0 9 -12 37 -26 62 -15 25 -37 74 -49 110 -12 36
		-34 85 -49 110 -14 25 -26 52 -26 61 0 9 -12 34 -27 55 -14 21 -35 62 -46 89
		-10 28 -25 57 -33 66 -8 9 -25 42 -38 75 -12 32 -35 77 -49 98 -15 21 -27 47
		-27 57 0 9 -11 30 -24 46 -14 16 -36 54 -50 84 -14 30 -46 88 -70 129 -25 41
		-59 102 -76 134 -16 33 -39 69 -49 80 -10 12 -28 42 -39 67 -11 26 -25 50 -31
		54 -8 5 -6 16 8 38 10 18 27 58 36 89 9 31 24 67 34 80 19 25 36 66 46 113 3
		17 17 47 30 67 14 20 30 58 36 85 6 26 24 71 39 98 16 28 33 70 40 95 6 25 22
		63 34 85 13 22 29 65 36 95 7 30 23 74 36 97 13 23 31 70 40 105 9 35 26 79
		39 98 13 19 28 61 34 93 6 31 22 77 35 100 14 24 32 73 39 109 8 36 23 81 35
		100 11 18 28 62 37 97 9 36 25 82 36 103 10 21 26 68 35 105 8 38 28 97 44
		133 15 36 31 83 35 105 4 22 20 74 35 115 16 41 33 100 40 131 6 31 20 73 31
		93 11 21 29 83 40 138 12 56 29 117 40 137 10 20 25 70 34 111 8 41 24 98 35
		125 11 28 29 93 39 146 11 52 29 117 39 145 11 27 27 89 36 137 9 48 25 107
		36 132 11 25 29 98 39 163 11 64 29 140 40 167 10 28 24 86 30 130 7 44 23
		116 36 160 14 44 31 125 40 180 8 55 24 129 35 164 11 35 29 125 40 200 10 75
		30 179 43 231 14 52 28 138 32 190 5 52 14 113 22 135 18 48 53 254 53 310 0
		46 26 206 41 250 6 17 19 118 29 225 10 107 28 242 39 300 11 58 26 175 32
		260 18 244 36 421 58 570 5 36 14 198 20 360 6 162 14 322 17 355 3 33 10 164
		14 290 4 127 12 250 18 275 15 60 15 1185 1 1255 -6 28 -14 147 -19 265 -29
		739 -40 957 -54 1050 -18 119 -20 135 -40 355 -29 310 -37 381 -46 435 -10 60
		-31 225 -54 420 -9 69 -22 154 -30 190 -8 36 -22 129 -30 206 -9 78 -27 188
		-41 245 -13 57 -29 154 -35 214 -6 61 -22 142 -35 180 -13 39 -29 117 -35 175
		-6 58 -22 139 -35 180 -13 41 -31 129 -40 194 -9 66 -27 151 -40 189 -13 37
		-29 105 -35 150 -6 45 -22 114 -35 152 -13 39 -31 111 -40 162 -8 50 -26 120
		-39 155 -13 35 -27 90 -31 123 -4 33 -20 98 -36 145 -16 47 -35 120 -43 162
		-8 42 -22 91 -31 108 -9 17 -27 80 -40 140 -13 60 -31 123 -40 139 -8 16 -24
		69 -35 116 -11 47 -28 103 -39 123 -10 20 -24 69 -31 107 -7 39 -23 88 -35
		110 -13 23 -31 76 -40 119 -8 43 -26 97 -40 120 -13 22 -29 70 -35 106 -6 36
		-22 83 -35 105 -13 22 -29 69 -36 105 -6 36 -22 85 -34 110 -12 25 -32 79 -44
		120 -13 41 -29 85 -37 97 -7 12 -22 54 -33 93 -11 40 -30 88 -41 107 -11 20
		-27 62 -35 95 -7 32 -23 74 -34 93 -11 20 -28 61 -37 93 -9 31 -27 77 -39 102
		-12 25 -30 72 -40 105 -9 33 -24 71 -33 85 -9 14 -29 57 -43 95 -45 119 -78
		197 -109 260 -17 33 -35 80 -41 105 -6 24 -21 57 -34 72 -13 15 -28 50 -34 78
		-6 29 -22 66 -35 83 -13 18 -31 57 -40 88 -8 31 -25 68 -36 82 -12 14 -30 52
		-40 83 -11 32 -27 65 -36 75 -8 9 -22 38 -30 64 -7 26 -27 68 -44 93 -16 25
		-30 51 -30 57 0 7 -14 38 -31 70 -17 32 -37 79 -45 104 -7 26 -25 62 -38 80
		-14 19 -33 56 -41 82 -9 26 -22 53 -30 59 -8 7 -24 37 -35 68 -12 31 -34 74
		-51 96 -16 22 -29 45 -29 52 0 6 -12 29 -27 50 -14 21 -35 61 -45 88 -11 28
		-28 62 -39 77 -11 16 -25 43 -31 61 -6 18 -21 47 -34 64 -13 18 -35 56 -49 85
		-33 68 -96 182 -112 200 -6 8 -19 34 -29 59 -9 25 -24 53 -33 64 -20 23 -71
		113 -110 192 -16 34 -35 65 -41 69 -7 4 -23 31 -35 60 -13 28 -30 59 -38 67
		-8 8 -25 34 -37 57 -12 24 -35 62 -51 84 -16 22 -29 46 -29 53 0 7 -11 25 -24
		41 -13 15 -35 51 -49 80 -15 28 -31 54 -37 58 -6 4 -22 27 -36 53 -37 68 -91
		155 -107 172 -8 8 -25 35 -37 60 -13 25 -36 60 -51 78 -16 18 -29 38 -29 45 0
		7 -16 32 -35 56 -19 24 -35 50 -35 57 0 7 -13 28 -29 46 -15 18 -36 49 -46 68
		-10 19 -31 51 -46 70 -16 19 -29 39 -29 45 0 9 -25 43 -103 140 -13 17 -32 46
		-42 65 -10 19 -30 49 -44 66 -14 17 -34 44 -43 60 -10 16 -38 56 -62 89 -25
		33 -54 76 -64 95 -11 19 -30 44 -42 55 -12 11 -31 36 -41 55 -11 19 -35 55
		-54 80 -19 25 -47 62 -62 83 -16 21 -41 53 -56 72 -37 45 -68 87 -113 155 -21
		30 -43 58 -50 63 -7 4 -23 25 -35 47 -13 22 -26 40 -31 40 -4 0 -19 17 -33 38
		-14 20 -41 57 -60 82 -19 25 -49 64 -67 88 -18 24 -46 58 -63 77 -16 18 -50
		59 -75 90 -25 32 -55 69 -68 82 -13 14 -33 42 -46 62 -13 21 -38 53 -55 72
		-48 53 -146 167 -391 459 -89 105 -177 203 -287 318 -40 41 -73 79 -73 83 0 3
		-47 54 -104 112 -57 58 -114 120 -126 139 -34 48 -896 913 -955 958 -27 21
		-93 80 -146 131 -53 52 -115 110 -138 129 -22 19 -77 69 -121 110 -138 130
		-254 232 -416 367 -55 45 -115 96 -134 113 -19 17 -53 46 -75 64 -22 19 -76
		65 -120 103 -44 38 -102 85 -128 104 -80 57 -101 73 -128 99 -14 14 -52 45
		-83 70 -32 25 -76 60 -99 78 -22 18 -53 40 -69 48 -15 8 -28 19 -28 24 0 5
		-20 21 -45 36 -25 14 -45 30 -45 35 0 5 -17 20 -37 34 -21 14 -65 46 -98 70
		-33 25 -81 59 -107 77 -27 17 -48 34 -48 39 0 4 -21 21 -47 38 -101 66 -138
		92 -162 115 -14 13 -37 29 -51 36 -14 7 -38 24 -55 37 -71 58 -148 113 -158
		113 -6 0 -23 12 -39 27 -15 14 -43 36 -61 47 -63 39 -132 85 -167 111 -19 14
		-66 46 -105 70 -38 24 -83 54 -99 67 -16 13 -48 34 -71 48 -64 38 -137 86
		-170 112 -16 13 -46 30 -66 39 -20 10 -40 22 -43 28 -4 6 -26 21 -49 32 -23
		12 -57 35 -75 50 -18 16 -38 29 -44 29 -6 0 -25 11 -42 24 -17 13 -51 33 -76
		46 -25 12 -56 32 -70 45 -14 12 -41 28 -60 35 -19 8 -50 26 -68 42 -18 15 -37
		28 -43 28 -5 0 -32 15 -60 34 -27 19 -60 38 -72 42 -12 3 -35 16 -52 29 -16
		12 -53 34 -82 48 -28 15 -54 31 -58 37 -4 6 -35 23 -69 39 -35 16 -67 34 -71
		40 -4 7 -30 23 -58 37 -29 13 -83 42 -122 64 -38 21 -95 51 -125 66 -30 15
		-64 35 -75 45 -11 9 -45 27 -75 39 -30 12 -61 27 -69 33 -20 17 -118 73 -171
		97 -25 11 -61 29 -80 40 -19 10 -51 26 -70 35 -19 9 -51 25 -70 36 -19 10 -55
		28 -80 39 -25 11 -58 28 -75 37 -16 9 -48 25 -70 35 -22 11 -56 28 -75 38 -19
		11 -55 29 -80 40 -25 11 -56 27 -70 35 -14 8 -45 24 -70 35 -25 11 -70 33
		-100 49 -30 16 -73 34 -95 41 -22 7 -56 23 -76 37 -20 13 -59 30 -85 37 -27 7
		-66 25 -87 39 -21 14 -52 29 -70 32 -18 4 -59 23 -93 41 -33 19 -68 34 -76 34
		-9 0 -42 14 -74 31 -33 17 -81 38 -109 46 -27 8 -64 24 -81 34 -18 11 -58 28
		-90 39 -32 11 -69 27 -82 36 -14 9 -53 24 -89 34 -35 11 -78 28 -96 39 -18 10
		-59 27 -92 36 -33 10 -74 26 -91 36 -17 10 -62 28 -100 40 -38 12 -89 31 -114
		44 -25 12 -68 27 -97 33 -28 6 -67 22 -86 35 -19 13 -60 29 -91 35 -30 6 -77
		22 -104 36 -27 14 -78 32 -114 40 -36 8 -81 24 -99 35 -19 11 -68 27 -109 36
		-41 9 -82 23 -91 31 -20 18 -101 44 -138 44 -14 0 -53 13 -86 28 -33 16 -93
		36 -134 45 -41 10 -89 26 -107 38 -19 11 -71 27 -116 35 -46 8 -101 24 -123
		35 -22 12 -82 30 -133 40 -50 10 -109 27 -130 38 -20 10 -77 26 -127 36 -49 9
		-112 27 -140 39 -27 13 -86 28 -130 35 -44 6 -96 20 -115 30 -38 19 -105 36
		-185 47 -27 4 -79 17 -114 30 -34 13 -107 30 -160 38 -54 8 -122 25 -152 36
		-30 12 -109 30 -176 41 -67 10 -139 26 -160 34 -21 9 -96 25 -167 36 -71 10
		-157 28 -192 39 -35 10 -113 26 -173 34 -61 9 -157 27 -215 40 -57 14 -153 30
		-212 36 -60 6 -167 24 -240 41 -72 16 -149 29 -170 29 -51 0 -250 27 -292 39
		-50 15 -164 30 -317 41 -126 9 -225 23 -370 50 -27 5 -147 14 -265 20 -118 6
		-246 16 -285 22 -157 22 -435 42 -805 56 -292 12 -1858 12 -2180 1z m-6704
		-10350 c52 -5 113 -16 134 -24 22 -8 88 -21 147 -30 60 -9 146 -30 193 -46 47
		-15 112 -33 144 -39 33 -5 75 -19 94 -30 18 -11 65 -29 103 -40 39 -10 84 -28
		102 -39 18 -10 55 -26 84 -34 29 -9 71 -27 95 -40 24 -14 61 -30 83 -37 22 -7
		54 -23 70 -35 17 -12 41 -26 55 -30 14 -4 62 -27 108 -51 46 -24 89 -44 96
		-44 7 0 21 -9 30 -19 10 -11 39 -29 66 -40 27 -12 52 -26 56 -32 4 -6 35 -24
		69 -40 34 -15 67 -35 74 -43 8 -9 32 -25 55 -36 41 -21 115 -69 170 -112 17
		-13 41 -29 55 -35 42 -20 131 -84 249 -178 24 -19 48 -35 52 -35 5 0 29 -17
		53 -37 25 -21 68 -56 97 -78 52 -40 67 -53 174 -144 33 -28 63 -51 68 -51 5 0
		24 -15 42 -32 18 -18 53 -50 77 -71 142 -124 224 -203 513 -493 368 -369 512
		-523 600 -643 11 -14 38 -46 59 -71 69 -79 101 -117 139 -167 21 -26 69 -87
		107 -134 38 -48 76 -100 85 -118 9 -17 21 -31 26 -31 5 0 21 -17 35 -37 14
		-21 46 -65 70 -98 25 -33 57 -78 72 -100 15 -22 36 -50 47 -63 11 -12 29 -37
		40 -56 65 -104 118 -179 172 -244 17 -20 37 -53 44 -72 8 -19 24 -48 37 -65
		14 -16 49 -68 78 -115 30 -47 63 -96 73 -110 11 -14 27 -43 36 -64 9 -21 26
		-50 38 -66 13 -15 43 -65 68 -110 25 -45 55 -96 67 -113 12 -18 36 -59 53 -92
		17 -33 50 -94 75 -135 25 -41 55 -97 68 -125 13 -27 31 -56 40 -63 9 -8 23
		-37 33 -65 9 -29 25 -61 35 -73 11 -11 26 -42 36 -70 9 -27 26 -62 38 -79 13
		-16 28 -48 35 -70 7 -22 23 -55 37 -73 13 -18 31 -54 40 -80 9 -26 24 -56 34
		-67 10 -12 28 -47 38 -78 11 -32 29 -70 39 -85 11 -15 25 -45 32 -67 7 -22 25
		-63 41 -91 16 -28 29 -58 29 -66 0 -8 18 -51 40 -94 22 -43 40 -86 40 -95 0
		-10 13 -42 30 -74 16 -31 36 -78 44 -104 7 -26 25 -69 39 -97 15 -27 31 -71
		37 -99 6 -27 20 -63 32 -79 11 -16 29 -62 39 -104 11 -41 28 -89 38 -106 11
		-17 29 -69 41 -115 11 -46 27 -93 35 -105 8 -12 24 -60 36 -106 11 -46 28
		-100 38 -119 10 -20 26 -72 36 -116 9 -44 28 -105 41 -136 13 -31 28 -87 34
		-124 6 -37 22 -93 35 -125 13 -31 31 -101 40 -155 8 -53 24 -118 35 -144 11
		-25 29 -104 39 -176 11 -71 29 -155 40 -185 11 -31 25 -105 31 -165 7 -61 18
		-130 25 -155 21 -73 43 -225 55 -380 6 -80 16 -167 21 -194 5 -27 9 -65 9 -85
		0 -20 8 -56 17 -81 14 -40 16 -109 17 -580 l0 -535 -26 -150 c-15 -82 -34
		-220 -43 -305 -9 -90 -24 -178 -36 -210 -11 -30 -28 -104 -38 -165 -10 -60
		-28 -131 -40 -157 -11 -26 -28 -79 -36 -118 -8 -38 -26 -92 -40 -119 -13 -27
		-27 -68 -31 -91 -4 -23 -17 -57 -30 -76 -13 -19 -31 -59 -39 -88 -9 -30 -27
		-71 -41 -92 -14 -20 -33 -57 -43 -83 -10 -25 -30 -64 -44 -85 -15 -21 -27 -45
		-27 -52 0 -7 -13 -28 -29 -46 -16 -18 -36 -50 -45 -72 -16 -38 -45 -79 -98
		-137 -15 -16 -37 -43 -49 -60 -12 -17 -31 -41 -43 -53 -11 -12 -47 -55 -80
		-94 -32 -40 -75 -82 -95 -94 -20 -12 -50 -35 -67 -52 -59 -60 -177 -150 -224
		-171 -19 -9 -44 -25 -55 -35 -11 -10 -43 -29 -70 -41 -28 -12 -60 -30 -73 -40
		-13 -10 -49 -25 -80 -34 -31 -10 -75 -27 -97 -40 -22 -13 -69 -29 -105 -36
		-36 -6 -91 -23 -124 -36 -43 -18 -96 -28 -205 -38 -80 -7 -159 -18 -174 -24
		-38 -15 -381 -15 -409 0 -11 6 -94 17 -184 24 -121 10 -181 20 -236 38 -40 14
		-109 31 -153 37 -44 7 -109 24 -145 40 -36 15 -85 31 -110 35 -25 4 -63 17
		-86 30 -22 13 -63 29 -90 36 -27 6 -74 24 -104 39 -30 15 -78 35 -107 44 -28
		10 -62 26 -75 36 -13 10 -49 26 -79 34 -31 9 -71 28 -89 41 -18 13 -49 30 -69
		36 -20 6 -45 20 -56 30 -11 10 -46 29 -77 43 -31 14 -59 30 -63 37 -4 6 -33
		22 -63 36 -31 13 -69 35 -85 49 -16 13 -33 24 -39 24 -6 0 -31 15 -57 33 -25
		18 -63 40 -83 50 -21 9 -38 21 -38 27 0 5 -18 19 -41 30 -22 12 -60 36 -85 55
		-25 19 -50 35 -56 35 -6 0 -28 15 -48 33 -21 17 -68 52 -105 77 -36 25 -82 60
		-102 78 -20 17 -40 32 -44 32 -5 0 -21 11 -36 24 -69 60 -111 94 -143 116 -45
		31 -126 97 -228 190 -22 19 -61 53 -87 75 -26 22 -78 70 -116 108 -38 37 -75
		67 -81 67 -16 0 -495 478 -521 520 -12 19 -65 80 -119 134 -54 54 -98 103 -98
		108 0 5 -19 28 -42 52 -24 24 -61 64 -83 90 -22 26 -55 63 -74 84 -18 20 -43
		48 -56 62 -12 14 -30 39 -41 55 -10 17 -32 47 -49 67 -16 21 -48 60 -70 88
		-22 28 -51 62 -65 76 -13 14 -33 40 -45 58 -30 50 -79 117 -185 251 -34 43
		-81 109 -121 170 -10 17 -39 57 -64 90 -24 33 -55 81 -69 106 -13 25 -32 51
		-41 59 -9 7 -23 27 -32 44 -8 17 -23 40 -33 51 -10 11 -30 43 -45 70 -15 28
		-35 59 -46 71 -10 11 -19 25 -19 31 0 5 -13 28 -29 50 -16 22 -38 58 -49 80
		-11 22 -28 45 -37 53 -9 8 -29 41 -44 74 -15 34 -35 67 -44 75 -9 7 -17 19
		-17 26 0 7 -15 35 -33 61 -19 27 -39 65 -46 84 -6 19 -22 46 -36 60 -13 14
		-31 45 -40 70 -9 25 -26 56 -39 70 -13 14 -31 48 -40 77 -10 28 -24 57 -32 64
		-8 7 -24 34 -35 60 -12 27 -27 53 -35 59 -7 6 -25 42 -39 80 -14 38 -33 74
		-40 80 -8 7 -24 37 -35 68 -12 32 -28 64 -36 73 -8 9 -25 42 -38 75 -12 32
		-34 76 -48 96 -14 20 -28 55 -32 77 -3 22 -17 52 -30 68 -13 15 -29 46 -36 68
		-7 22 -28 70 -46 106 -19 37 -34 73 -34 81 0 8 -16 45 -35 81 -19 36 -35 73
		-35 81 0 8 -15 43 -33 78 -19 35 -39 85 -46 111 -6 27 -20 61 -31 75 -10 15
		-26 56 -35 92 -9 35 -27 83 -40 105 -14 22 -32 72 -40 110 -9 39 -26 85 -37
		103 -11 18 -26 60 -34 94 -8 34 -24 76 -35 94 -11 18 -28 73 -40 124 -11 50
		-30 113 -43 138 -12 26 -28 78 -35 116 -7 38 -20 85 -30 105 -10 20 -28 82
		-40 138 -11 56 -29 120 -40 141 -11 21 -25 76 -31 122 -6 47 -24 123 -40 170
		-16 47 -31 112 -35 145 -4 33 -20 107 -35 165 -16 58 -36 166 -44 240 -8 74
		-22 155 -31 180 -9 25 -23 108 -31 185 -7 77 -18 181 -25 230 -43 350 -54 535
		-53 890 0 298 11 505 33 650 5 33 16 121 25 195 24 204 36 276 56 336 10 29
		24 91 31 136 6 46 22 109 35 140 12 32 28 84 34 115 7 32 25 85 40 118 15 33
		31 78 34 100 4 22 20 65 35 95 16 30 34 73 41 95 7 22 23 55 37 73 13 18 31
		54 40 80 9 26 24 56 34 67 9 11 25 40 35 65 10 25 32 64 49 86 16 23 38 54 47
		70 10 16 38 56 62 89 25 33 53 71 63 85 24 35 58 71 170 182 135 134 208 197
		278 238 22 13 55 36 73 52 18 15 38 28 45 28 7 0 33 13 58 29 25 15 63 34 85
		41 21 7 55 24 76 37 20 14 62 31 94 40 32 8 75 23 96 34 21 11 82 28 136 39
		53 11 111 25 127 31 76 27 189 37 443 38 144 1 306 -4 358 -10z m-3142 -5750
		c9 -52 27 -122 41 -155 13 -34 29 -94 35 -135 6 -41 21 -96 35 -122 14 -27 30
		-78 35 -115 6 -36 24 -95 39 -131 16 -37 34 -90 40 -119 6 -29 20 -70 30 -91
		11 -21 29 -76 41 -122 12 -46 28 -94 36 -106 7 -12 23 -56 34 -97 12 -41 32
		-95 45 -118 12 -24 28 -67 34 -96 6 -30 22 -72 35 -95 14 -23 30 -62 36 -87 6
		-25 22 -64 35 -88 14 -24 32 -70 41 -102 9 -33 22 -65 30 -71 7 -6 23 -41 35
		-77 12 -37 30 -79 40 -93 11 -15 27 -54 38 -87 10 -33 28 -73 39 -87 12 -15
		28 -52 37 -83 9 -31 25 -66 36 -78 10 -11 26 -42 35 -70 9 -27 27 -62 39 -79
		12 -16 30 -53 39 -81 9 -29 25 -59 36 -69 11 -10 27 -40 36 -69 9 -28 27 -64
		39 -81 13 -16 28 -48 35 -70 7 -22 23 -54 36 -71 13 -17 32 -55 43 -84 11 -29
		29 -62 39 -74 10 -12 26 -42 36 -68 9 -25 24 -52 33 -59 8 -7 26 -36 39 -64
		36 -72 86 -160 106 -181 9 -11 28 -45 42 -76 14 -32 29 -58 34 -58 6 0 20 -21
		32 -47 12 -27 30 -57 40 -68 10 -11 27 -40 38 -65 11 -25 27 -51 36 -59 9 -7
		25 -34 36 -58 11 -25 33 -61 50 -79 16 -19 30 -39 30 -44 0 -11 78 -131 115
		-176 14 -18 25 -36 25 -41 0 -8 28 -47 111 -158 32 -42 44 -61 135 -195 32
		-47 68 -96 80 -110 29 -32 64 -79 115 -157 23 -35 44 -63 48 -63 4 0 15 -15
		25 -32 11 -18 29 -44 42 -58 47 -50 114 -134 114 -141 0 -8 29 -44 177 -218
		21 -24 53 -60 70 -80 18 -20 69 -79 113 -131 253 -300 859 -910 1045 -1052 17
		-12 84 -69 150 -125 159 -136 168 -144 255 -208 41 -30 86 -66 100 -79 14 -13
		36 -29 50 -36 14 -7 34 -22 45 -32 37 -35 109 -87 156 -112 26 -14 49 -32 53
		-41 3 -9 20 -22 38 -30 18 -7 46 -24 62 -37 16 -12 48 -34 71 -48 82 -49 108
		-65 139 -87 17 -13 50 -32 73 -43 23 -11 55 -31 70 -44 15 -13 45 -29 66 -37
		21 -7 47 -22 58 -32 11 -10 41 -28 67 -39 26 -11 61 -30 77 -43 17 -12 53 -30
		82 -39 28 -9 57 -23 63 -31 7 -8 37 -24 67 -35 30 -11 69 -31 86 -44 18 -13
		55 -29 82 -35 28 -7 66 -23 85 -36 19 -12 61 -30 92 -39 32 -9 73 -26 93 -37
		19 -11 62 -27 96 -35 33 -8 79 -25 102 -38 23 -13 73 -29 110 -35 38 -5 85
		-20 105 -32 22 -12 82 -29 147 -41 61 -10 144 -30 185 -42 41 -13 111 -27 155
		-31 44 -4 109 -11 145 -17 36 -5 101 -14 145 -18 44 -5 100 -14 125 -19 25 -6
		119 -10 209 -11 156 0 275 12 446 45 39 7 113 18 166 23 57 6 115 19 142 31
		25 11 84 30 130 41 47 10 100 28 118 39 19 11 58 25 86 31 29 7 68 22 87 35
		20 13 56 31 82 40 25 8 60 26 77 39 18 12 53 31 79 40 27 10 51 23 55 31 5 7
		31 24 59 38 27 14 56 33 64 42 7 9 31 25 52 36 21 11 38 23 38 28 0 5 20 22
		44 38 90 58 155 115 297 259 128 132 178 189 254 294 11 16 30 41 43 57 48 59
		92 123 111 162 12 22 26 43 31 46 6 4 22 32 35 62 14 30 36 68 50 85 14 16 25
		35 25 42 0 7 13 33 29 58 16 25 36 70 45 100 8 30 25 67 37 82 12 15 28 52 36
		84 8 31 25 75 39 97 13 22 28 65 35 95 6 30 22 75 34 100 12 25 30 80 39 124
		9 43 25 98 36 123 11 25 29 98 39 162 11 64 27 132 35 151 8 19 20 64 26 100
		6 36 18 80 26 98 l14 34 35 -28 c19 -16 85 -76 145 -134 61 -57 118 -109 128
		-114 9 -5 43 -37 75 -70 32 -33 69 -67 82 -75 13 -9 81 -64 152 -123 163 -137
		179 -150 233 -197 70 -61 110 -93 183 -146 38 -28 92 -69 120 -92 82 -67 99
		-81 146 -115 59 -44 140 -103 171 -125 14 -9 41 -31 61 -48 20 -16 49 -38 65
		-48 16 -9 56 -37 89 -62 33 -24 76 -53 96 -64 19 -11 41 -27 49 -36 7 -9 34
		-28 59 -42 25 -15 60 -38 78 -52 17 -14 61 -44 98 -66 36 -22 81 -52 98 -66
		18 -15 55 -38 82 -53 48 -26 77 -45 155 -101 19 -13 54 -35 76 -47 53 -29 98
		-57 138 -85 17 -12 59 -36 94 -53 34 -17 62 -35 62 -39 0 -5 28 -23 63 -40
		107 -55 171 -92 192 -110 11 -10 36 -24 55 -31 19 -7 44 -22 56 -32 12 -10 45
		-28 75 -39 30 -11 65 -31 79 -44 14 -13 45 -31 70 -40 24 -8 51 -22 60 -30 9
		-8 36 -23 62 -35 25 -11 51 -26 57 -34 7 -8 43 -27 81 -41 38 -14 74 -33 80
		-40 7 -8 37 -24 68 -35 32 -12 64 -28 73 -36 9 -8 39 -24 67 -34 27 -11 72
		-33 98 -50 26 -16 55 -30 65 -30 9 0 34 -12 55 -27 21 -14 61 -35 88 -45 27
		-11 60 -28 73 -38 14 -10 50 -26 81 -35 31 -9 71 -27 87 -39 17 -13 48 -29 70
		-36 22 -7 54 -21 71 -31 18 -11 58 -28 90 -39 32 -11 74 -30 93 -41 20 -12 60
		-30 90 -40 30 -11 62 -25 70 -33 16 -14 102 -46 123 -46 6 0 32 -13 57 -29 25
		-16 68 -34 94 -40 27 -6 72 -25 101 -41 29 -17 60 -30 68 -30 9 0 41 -13 71
		-29 31 -16 82 -37 114 -46 32 -9 76 -27 98 -40 22 -13 55 -26 74 -30 19 -4 66
		-23 105 -41 39 -19 80 -34 91 -34 11 0 53 -16 93 -35 39 -18 89 -37 109 -41
		21 -4 63 -19 93 -34 30 -16 80 -33 110 -40 30 -7 74 -23 97 -36 23 -13 65 -29
		95 -35 29 -6 74 -22 99 -35 26 -13 68 -28 95 -35 27 -6 71 -22 97 -35 27 -13
		84 -33 127 -43 44 -11 94 -28 112 -37 18 -9 67 -26 108 -36 41 -10 92 -27 112
		-38 21 -11 68 -26 105 -35 37 -9 92 -26 122 -40 31 -13 84 -31 118 -39 35 -9
		80 -24 101 -35 21 -11 76 -27 122 -35 45 -9 98 -25 115 -36 18 -11 75 -30 125
		-41 51 -11 110 -29 132 -40 22 -11 68 -25 101 -30 34 -6 91 -23 127 -38 36
		-16 94 -34 130 -41 35 -6 82 -21 103 -31 20 -11 83 -29 138 -40 56 -12 122
		-32 147 -45 25 -13 57 -24 71 -24 34 0 91 -16 166 -45 34 -13 92 -29 129 -35
		38 -6 92 -22 120 -35 28 -13 82 -29 121 -35 38 -6 97 -22 131 -36 35 -14 100
		-32 146 -41 46 -8 103 -25 128 -38 25 -13 81 -28 125 -35 44 -6 103 -22 130
		-35 28 -13 90 -30 139 -40 49 -9 107 -25 128 -36 22 -11 74 -26 116 -34 84
		-15 118 -25 173 -48 19 -9 67 -21 105 -28 38 -6 94 -22 124 -34 30 -13 92 -30
		136 -38 45 -9 99 -24 120 -35 22 -11 85 -29 141 -41 57 -11 117 -28 135 -37
		18 -10 72 -25 121 -35 48 -10 102 -25 120 -34 17 -9 79 -27 137 -40 58 -13
		128 -32 155 -43 28 -12 83 -28 123 -37 40 -9 93 -25 117 -36 25 -11 81 -26
		124 -34 44 -8 98 -23 120 -34 22 -12 73 -28 113 -36 39 -9 97 -26 127 -40 31
		-13 83 -29 116 -35 33 -7 84 -23 113 -36 29 -14 88 -32 130 -40 42 -8 92 -24
		111 -35 20 -12 67 -28 106 -35 38 -8 90 -25 115 -38 25 -13 78 -31 119 -40 41
		-9 88 -25 106 -36 17 -11 64 -26 103 -35 40 -8 94 -26 120 -39 26 -13 74 -29
		107 -35 33 -6 80 -22 106 -35 25 -14 75 -32 109 -41 35 -9 85 -27 111 -41 26
		-13 69 -28 96 -34 26 -6 69 -22 94 -35 25 -13 73 -31 106 -39 33 -9 80 -27
		104 -40 24 -13 60 -27 79 -31 19 -4 60 -20 90 -36 30 -15 77 -33 103 -39 26
		-6 65 -21 85 -34 20 -13 64 -32 97 -41 33 -9 78 -27 100 -40 22 -13 65 -30 96
		-39 31 -9 62 -23 69 -31 7 -8 44 -24 84 -36 39 -12 82 -30 95 -40 13 -11 48
		-26 77 -35 29 -8 64 -24 78 -35 14 -11 49 -28 78 -38 29 -10 70 -30 91 -44 20
		-14 55 -28 77 -32 23 -4 53 -17 68 -30 15 -12 49 -30 76 -39 27 -9 60 -25 73
		-36 14 -11 50 -29 81 -40 31 -12 66 -30 77 -39 11 -10 38 -24 60 -31 22 -7 54
		-23 72 -36 18 -14 54 -34 80 -45 26 -11 57 -28 68 -38 11 -10 41 -25 67 -35
		25 -9 52 -24 59 -32 7 -9 40 -28 74 -43 34 -16 65 -33 69 -39 4 -6 27 -20 52
		-32 25 -11 59 -31 75 -44 16 -14 39 -28 51 -32 13 -4 39 -20 58 -35 19 -16 39
		-29 45 -29 11 0 130 -73 175 -108 14 -11 48 -31 76 -45 27 -14 56 -33 64 -42
		7 -9 30 -25 50 -35 20 -10 42 -26 50 -35 8 -9 32 -26 54 -37 23 -11 55 -32 72
		-47 17 -14 44 -34 60 -43 16 -10 56 -38 89 -63 33 -25 73 -53 89 -62 16 -10
		38 -29 50 -41 12 -13 34 -31 51 -39 16 -9 41 -28 56 -42 14 -14 56 -48 93 -76
		125 -93 180 -137 254 -206 15 -14 72 -65 127 -114 55 -48 104 -94 108 -101 4
		-8 27 -27 51 -43 56 -39 336 -315 411 -406 32 -38 85 -97 118 -130 33 -33 70
		-77 83 -97 13 -21 28 -38 33 -38 4 0 31 -28 59 -62 28 -35 65 -79 82 -98 56
		-63 108 -129 127 -160 9 -16 20 -30 24 -30 4 0 21 -22 38 -50 17 -27 35 -50
		39 -50 5 0 18 -17 30 -39 12 -21 29 -44 38 -52 8 -7 24 -29 34 -48 10 -20 32
		-51 49 -70 17 -19 31 -40 31 -46 0 -6 11 -22 25 -35 14 -13 39 -46 55 -74 36
		-60 70 -110 102 -151 14 -16 30 -46 38 -65 7 -19 22 -45 33 -57 24 -27 78
		-119 111 -188 13 -27 33 -58 44 -69 12 -10 28 -40 37 -66 9 -26 27 -57 40 -70
		13 -12 27 -35 30 -50 3 -15 22 -51 40 -81 19 -29 35 -58 35 -65 0 -6 13 -29
		29 -50 15 -22 33 -56 40 -76 7 -21 24 -54 38 -75 14 -21 34 -63 43 -93 9 -30
		29 -73 43 -94 15 -21 27 -45 27 -53 0 -7 18 -48 40 -89 22 -42 40 -84 40 -93
		0 -10 16 -48 35 -84 19 -36 35 -72 35 -80 0 -8 13 -40 29 -70 16 -31 37 -82
		46 -114 9 -32 25 -72 36 -89 10 -17 26 -60 35 -95 9 -35 27 -82 39 -104 13
		-22 28 -67 35 -100 7 -33 23 -79 36 -102 13 -23 31 -77 40 -120 9 -43 27 -98
		39 -123 13 -25 28 -70 33 -100 6 -30 22 -85 36 -122 14 -38 33 -101 41 -142 9
		-41 24 -94 35 -118 10 -24 26 -83 35 -131 9 -49 27 -117 40 -152 14 -35 29
		-102 35 -150 6 -48 20 -110 31 -138 11 -29 29 -106 40 -172 11 -66 29 -149 40
		-184 10 -34 26 -115 34 -180 19 -143 32 -215 49 -261 8 -19 16 -71 20 -115 9
		-106 23 -201 46 -305 17 -80 27 -151 50 -385 10 -101 19 -166 39 -285 6 -36
		15 -166 21 -290 7 -142 17 -240 26 -265 8 -23 14 -73 14 -113 0 -40 4 -103 10
		-140 18 -126 51 -1237 51 -1717 -1 -502 -35 -1743 -51 -1841 -5 -34 -10 -91
		-10 -126 0 -36 -6 -103 -14 -149 -8 -46 -20 -217 -26 -379 -7 -162 -17 -306
		-22 -320 -11 -28 -19 -70 -48 -255 -13 -84 -29 -145 -44 -175 -13 -25 -29 -72
		-36 -105 -6 -33 -24 -80 -40 -105 -15 -25 -30 -57 -34 -71 -3 -14 -17 -42 -31
		-63 -14 -20 -32 -54 -41 -74 -8 -20 -26 -48 -38 -62 -13 -14 -32 -41 -41 -60
		-10 -19 -31 -51 -47 -70 -43 -51 -281 -290 -289 -290 -4 0 -27 -16 -51 -36
		-23 -20 -57 -43 -74 -50 -17 -7 -37 -20 -44 -29 -8 -9 -31 -25 -51 -36 -21
		-10 -54 -30 -75 -44 -20 -14 -55 -30 -77 -36 -22 -6 -56 -21 -76 -34 -20 -13
		-56 -29 -81 -35 -24 -7 -65 -22 -90 -35 -25 -12 -85 -32 -134 -44 -49 -12
		-102 -29 -117 -37 -16 -8 -75 -21 -132 -30 -107 -16 -134 -21 -232 -48 -57
		-16 -153 -25 -510 -48 -191 -12 -437 -12 -635 0 -85 5 -243 15 -350 21 -107 6
		-224 18 -260 26 -103 23 -170 34 -245 40 -113 10 -276 36 -320 52 -22 8 -94
		21 -160 29 -66 8 -154 25 -195 39 -41 13 -115 29 -165 35 -49 7 -121 23 -159
		36 -38 13 -111 31 -161 39 -50 8 -111 23 -136 34 -24 11 -84 27 -134 36 -49
		10 -112 26 -139 36 -27 11 -87 29 -133 39 -46 11 -98 27 -114 36 -17 8 -71 24
		-122 35 -50 11 -105 28 -122 39 -16 10 -68 26 -115 35 -47 10 -106 28 -132 41
		-26 13 -80 31 -120 39 -39 9 -86 24 -103 35 -18 11 -65 27 -106 36 -41 10 -98
		30 -128 45 -30 16 -66 29 -81 29 -16 0 -53 13 -84 29 -31 17 -83 37 -116 45
		-34 9 -84 27 -113 40 -29 13 -72 30 -97 36 -25 6 -63 22 -85 34 -22 13 -62 29
		-90 35 -27 7 -68 23 -90 36 -23 13 -69 31 -104 40 -35 9 -79 27 -100 39 -20
		13 -60 29 -88 36 -29 7 -64 21 -78 32 -14 11 -59 30 -101 43 -42 13 -83 30
		-92 38 -9 8 -42 22 -72 32 -30 10 -73 28 -95 41 -22 12 -60 28 -85 34 -25 7
		-65 25 -89 41 -25 16 -52 29 -61 29 -9 0 -52 18 -95 40 -43 22 -86 40 -95 40
		-9 0 -36 13 -61 29 -25 15 -70 36 -100 46 -30 10 -64 26 -77 36 -13 10 -47 25
		-75 35 -29 9 -65 26 -80 37 -16 10 -49 26 -75 33 -26 8 -62 25 -82 39 -19 13
		-54 31 -78 39 -24 9 -56 24 -71 35 -15 11 -49 28 -77 39 -27 10 -67 31 -88 45
		-21 15 -47 27 -56 27 -9 0 -35 12 -56 27 -21 14 -66 37 -98 49 -33 13 -66 30
		-75 38 -9 8 -41 24 -73 36 -31 11 -61 27 -68 35 -7 8 -37 24 -68 35 -30 12
		-67 30 -82 40 -15 10 -52 29 -83 40 -31 12 -59 26 -63 32 -3 5 -34 22 -68 37
		-33 16 -67 35 -74 44 -8 9 -35 23 -62 32 -27 9 -60 25 -73 35 -13 10 -44 27
		-68 36 -24 9 -55 27 -69 39 -14 12 -46 29 -71 39 -26 9 -59 27 -73 40 -15 12
		-43 28 -64 35 -20 8 -44 19 -52 27 -9 7 -41 24 -72 38 -31 14 -59 30 -63 37
		-4 6 -36 24 -70 40 -34 15 -67 34 -74 43 -7 8 -34 22 -61 31 -26 9 -56 25 -66
		37 -11 11 -41 31 -69 45 -72 34 -160 85 -181 104 -11 9 -42 27 -71 39 -29 12
		-58 29 -64 36 -6 8 -32 23 -56 34 -25 11 -58 31 -75 45 -16 14 -35 25 -43 25
		-7 0 -40 18 -73 40 -33 22 -64 40 -70 40 -5 0 -29 16 -52 35 -23 19 -48 35
		-54 35 -7 0 -39 17 -72 39 -32 21 -88 57 -123 80 -35 22 -69 41 -75 41 -7 0
		-21 9 -33 19 -11 11 -38 28 -60 40 -22 11 -53 31 -69 44 -16 13 -43 29 -61 36
		-17 7 -41 23 -53 37 -13 13 -39 29 -59 35 -20 7 -53 27 -74 45 -20 19 -43 34
		-50 34 -6 0 -32 16 -56 35 -24 19 -50 35 -57 35 -7 0 -28 13 -46 29 -18 15
		-49 36 -68 46 -19 9 -44 26 -55 36 -11 10 -36 25 -55 33 -19 8 -46 26 -59 40
		-14 14 -30 26 -37 26 -7 0 -33 15 -57 34 -25 19 -60 42 -79 52 -18 9 -46 28
		-63 41 -16 13 -61 44 -100 68 -38 24 -86 55 -105 70 -64 47 -135 94 -182 120
		-27 14 -48 29 -48 33 0 5 -19 19 -42 32 -24 13 -59 36 -78 52 -19 15 -39 28
		-46 28 -6 0 -21 12 -35 26 -13 14 -42 35 -64 46 -22 12 -56 34 -75 49 -19 16
		-39 29 -46 29 -6 0 -21 12 -35 26 -13 14 -37 33 -52 41 -28 14 -94 60 -151
		105 -16 13 -43 32 -61 43 -17 11 -52 34 -76 52 -24 18 -66 47 -93 65 -26 18
		-64 47 -84 63 -19 17 -50 39 -67 50 -72 44 -144 95 -150 105 -4 6 -24 22 -46
		36 -22 13 -47 32 -57 40 -9 8 -48 37 -87 64 -73 51 -131 94 -193 145 -20 17
		-55 43 -77 58 -100 69 -131 92 -138 104 -4 7 -25 22 -46 33 -21 10 -41 26 -44
		34 -3 8 -21 23 -39 32 -18 9 -49 31 -69 48 -20 17 -57 47 -83 66 -44 33 -96
		74 -182 145 -20 17 -49 37 -64 45 -15 8 -43 27 -61 43 -19 15 -74 61 -124 102
		-151 124 -159 130 -195 156 -19 13 -42 31 -51 39 -9 8 -42 35 -74 60 -32 25
		-72 58 -89 73 -17 16 -43 36 -58 45 -16 9 -28 19 -28 22 0 4 -21 22 -47 40
		-50 35 -85 64 -191 158 -34 31 -73 63 -86 71 -44 30 -260 210 -394 328 -23 21
		-63 56 -88 78 -25 22 -55 49 -68 60 -12 11 -40 33 -62 50 -49 37 -192 160
		-219 188 -11 12 -36 34 -56 49 -19 14 -58 48 -85 74 -27 27 -107 100 -179 162
		-71 62 -148 130 -170 150 -22 20 -62 56 -90 79 -58 49 -174 158 -313 293 -54
		52 -116 108 -138 125 -21 16 -97 87 -167 157 -71 71 -134 128 -140 128 -27 0
		-1462 1436 -1565 1565 -22 28 -93 105 -158 172 -66 67 -137 143 -159 169 -22
		25 -74 81 -115 124 -131 135 -288 303 -330 353 -22 27 -68 75 -102 109 -35 33
		-70 71 -79 85 -9 14 -64 75 -121 137 -58 61 -124 134 -148 161 -24 28 -71 77
		-105 110 -34 33 -83 85 -110 115 -46 53 -159 175 -365 390 -56 58 -109 118
		-119 134 -11 15 -66 77 -122 136 -105 109 -298 314 -355 378 -18 19 -79 84
		-137 146 -58 61 -154 163 -214 226 -60 63 -121 131 -135 150 -14 19 -68 79
		-119 132 -52 54 -110 116 -129 138 -19 22 -71 78 -115 124 -114 120 -277 294
		-322 345 -21 24 -67 73 -103 109 -36 36 -75 80 -88 96 -32 43 -282 315 -368
		401 -39 38 -75 79 -81 89 -6 11 -56 67 -112 125 -130 136 -271 290 -319 349
		-20 25 -59 68 -87 95 -27 27 -57 61 -66 74 -9 13 -50 59 -90 102 -83 86 -141
		149 -272 296 -50 55 -98 106 -108 113 -10 7 -30 33 -45 58 -14 24 -36 52 -48
		62 -12 9 -62 62 -111 117 -49 55 -100 112 -114 126 -45 46 -158 172 -217 242
		-31 37 -60 67 -64 67 -4 0 -20 19 -35 43 -15 23 -53 68 -84 99 -30 32 -59 66
		-64 75 -5 10 -26 34 -46 54 -20 20 -52 55 -71 78 -19 23 -49 56 -66 74 -41 42
		-174 195 -199 228 -43 57 -194 230 -310 355 -22 24 -58 66 -80 95 -47 59 -178
		216 -230 274 -93 104 -232 269 -256 305 -13 19 -34 46 -47 60 -50 54 -241 283
		-317 379 -44 56 -111 139 -150 185 -38 46 -104 127 -145 180 -92 120 -133 170
		-243 301 -19 22 -46 58 -61 80 -14 22 -45 63 -67 90 -22 28 -59 74 -82 104
		-23 30 -57 73 -74 95 -18 23 -45 59 -60 81 -15 22 -41 57 -58 77 -16 20 -46
		58 -65 83 -19 25 -52 66 -72 91 -21 25 -38 50 -38 55 0 5 -15 25 -32 43 -18
		18 -41 46 -50 62 -10 16 -38 56 -63 89 -25 33 -53 73 -62 89 -10 16 -30 43
		-45 60 -15 17 -39 47 -53 66 -68 96 -98 138 -120 170 -13 19 -38 53 -55 75
		-42 54 -73 100 -111 163 -17 28 -35 52 -39 52 -4 0 -22 24 -39 53 -32 53 -60
		95 -106 157 -14 19 -41 56 -60 82 -19 26 -43 64 -54 86 -11 21 -27 44 -36 52
		-9 8 -25 30 -35 50 -10 20 -26 42 -35 50 -9 7 -27 37 -41 67 -14 29 -30 53
		-35 53 -5 0 -22 27 -39 59 -16 33 -34 62 -40 66 -6 4 -22 29 -35 56 -14 27
		-29 49 -34 49 -5 0 -19 21 -31 47 -12 26 -35 63 -51 82 -16 20 -29 41 -29 48
		0 6 -11 24 -24 40 -13 15 -35 51 -49 79 -14 27 -32 56 -40 62 -8 7 -21 27 -28
		45 -6 18 -22 46 -34 62 -12 17 -34 53 -48 82 -15 28 -32 55 -38 58 -6 4 -20
		28 -31 54 -10 25 -28 55 -38 66 -11 11 -27 38 -36 60 -9 22 -25 53 -36 68 -23
		32 -63 104 -104 187 -15 30 -35 64 -45 75 -10 11 -25 40 -34 64 -8 24 -27 62
		-41 85 -58 94 -97 164 -113 206 -10 25 -30 63 -44 84 -15 21 -27 47 -27 56 0
		9 -12 35 -27 56 -14 21 -37 66 -49 98 -13 33 -30 66 -38 75 -7 9 -23 46 -35
		83 -12 36 -28 72 -36 78 -8 6 -21 35 -31 63 -9 29 -29 75 -44 102 -16 28 -34
		70 -40 95 -7 25 -21 57 -31 72 -11 15 -27 51 -36 80 -8 29 -26 71 -38 93 -13
		22 -29 63 -36 90 -6 28 -22 68 -34 90 -13 22 -32 73 -45 114 -12 41 -28 83
		-35 95 -8 12 -23 53 -33 92 -11 39 -28 86 -37 104 -9 18 -27 74 -40 124 -12
		50 -30 106 -39 124 -9 18 -26 73 -36 122 -10 49 -28 108 -39 132 -10 24 -26
		84 -35 135 -9 50 -24 114 -35 140 -11 27 -27 98 -36 159 -10 60 -25 136 -35
		169 -18 60 -33 150 -45 275 -8 76 -30 209 -45 271 -9 36 -30 455 -33 654 -2
		120 24 643 33 675 5 19 10 49 10 65 0 18 15 55 37 90 l37 59 13 -31 c6 -17 19
		-73 27 -124z"/>
	</g>
</svg>
